<svg  xmlns="http://www.w3.org/2000/svg" xmlns:xlink="http://www.w3.org/1999/xlink" width="37px" height="37px"><path fill-rule="evenodd"  fill="rgb(31, 37, 42)" d="M18.25,0.25 C27.966,0.25 36.25,8.84 36.25,18.25 C36.25,27.966 27.966,36.25 18.25,36.25 C8.84,36.25 0.25,27.966 0.25,18.25 C0.25,8.84 8.84,0.25 18.25,0.25 Z"/><path fill-rule="evenodd"  fill="rgb(241, 132, 44)" d="M18.225,26.599 C13.775,26.599 10.168,23.25 10.168,18.616 C10.168,15.611 11.843,12.995 14.317,11.632 C15.57,11.225 15.966,11.753 15.966,12.591 L15.966,12.640 C15.966,13.40 15.745,13.406 15.392,13.601 C14.930,13.859 14.504,14.177 14.125,14.555 C13.592,15.83 13.173,15.698 12.880,16.382 C12.579,17.89 12.425,17.841 12.425,18.617 C12.425,19.394 12.579,20.146 12.880,20.852 C13.172,21.536 13.592,22.150 14.125,22.680 C14.658,23.208 15.279,23.623 15.969,23.913 C16.682,24.208 17.441,24.361 18.225,24.361 C19.8,24.361 19.767,24.208 20.480,23.909 C21.170,23.621 21.790,23.205 22.325,22.676 C22.858,22.148 23.276,21.534 23.569,20.849 C23.871,20.142 24.24,19.390 24.24,18.614 C24.24,17.837 23.871,17.85 23.569,16.379 C23.278,15.695 22.858,15.81 22.325,14.551 C21.943,14.175 21.520,13.855 21.57,13.598 C20.704,13.402 20.484,13.37 20.484,12.636 L20.484,12.591 C20.484,11.753 21.393,11.225 22.132,11.632 C24.606,12.995 26.281,15.611 26.281,18.616 C26.281,23.25 22.674,26.599 18.225,26.599 ZM18.225,18.467 C17.603,18.467 17.95,17.963 17.95,17.348 L17.95,9.792 C17.95,9.177 17.603,8.673 18.225,8.673 C18.846,8.673 19.354,9.177 19.354,9.792 L19.354,17.348 C19.354,17.963 18.846,18.467 18.225,18.467 Z"/></svg>